# AST/ASF file generated using VICON BodyLanguage
# -----------------------------------------------
:version 1.10
:name VICON
:units
  mass 1.0
  length 0.45
  angle deg
:documentation
   .ast/.asf automatically generated from VICON data using
   VICON BodyBuilder and BodyLanguage model FoxedUp or BRILLIANT.MOD
:root
   order TX TY TZ RX RY RZ
   axis XYZ
   position 0 0 0  
   orientation 0 0 0 
:bonedata
  begin
     id 1 
     name lhipjoint
     direction 0.535335 -0.74333 0.401095 
     length 2.04549 
     axis 0 0 0  XYZ
  end
  begin
     id 2 
     name lfemur
     direction 0.34202 -0.939693 0  
     length 6.95643  
     axis 0 0 20  XYZ
    dof rx ry rz
    limits (-160.0 20.0)
           (-70.0 70.0)
           (-60.0 70.0)
  end
  begin
     id 3 
     name ltibia
     direction 0.34192 -0.939729 0   
     length 5.55969   
     axis 0 0 20   XYZ
    dof rx
    limits (-10.0 170.0)
  end
  begin
     id 4 
     name lfoot
     direction 0.216943 -0.596046 0.773088   
     length 2.27918   
     axis -90 7.62852e-016 20   XYZ
    dof rx rz
    limits (-45.0 90.0)
           (-70.0 20.0)
  end
  begin
     id 5 
     name ltoes
     direction 1.53519e-011 -4.21748e-011 1   
     length 1.05562   
     axis -90 7.62852e-016 20   XYZ
    dof rx
    limits (-90.0 20.0)
  end
  begin
     id 6 
     name rhipjoint
     direction -0.576368 -0.719173 0.38806   
     length 2.1142  
     axis 0 0 0  XYZ 
  end
  begin
     id 7 
     name rfemur
     direction -0.34202 -0.939693 0   
     length 7.07928   
     axis 0 0 -20   XYZ
    dof rx ry rz
    limits (-160.0 20.0)
           (-70.0 70.0)
           (-70.0 60.0)
  end
  begin
     id 8 
     name rtibia
     direction -0.34202 -0.939693 0   
     length 5.79974   
     axis 0 0 -20   XYZ
    dof rx
    limits (-10.0 170.0)
 end
 begin
     id 9 
     name rfoot
     direction -0.189288 -0.520065 0.832888   
     length 2.42173  
     axis -90 -7.62852e-016 -20   XYZ
    dof rx rz
    limits (-45.0 90.0)
           (-20.0 70.0)
  end
  begin
     id 10 
     name rtoes
     direction -1.53574e-011 -4.21658e-011 1   
     length 1.14469   
     axis -90 -7.62852e-016 -20   XYZ
    dof rx
    limits (-90.0 20.0)
  end
  begin
     id 11 
     name lowerback
     direction -0.00135702 0.993803 0.111144   
     length 1.91308   
     axis 0 0 0   XYZ
    dof rx ry rz
    limits (-20.0 45.0)
           (-30.0 30.0)
           (-30.0 30.0)
  end
  begin
     id 12 
     name upperback
     direction -0.0056745 0.999813 0.0184631   
     length 1.9212   
     axis 0 0 0   XYZ
    dof rx ry rz
    limits (-20.0 45.0)
           (-30.0 30.0)
           (-30.0 30.0)
  end
  begin
     id 13 
     name thorax
     direction -0.00733434 0.999426 -0.0330788   
     length 1.94196   
     axis 0 0 0   XYZ
    dof rx ry rz
    limits (-20.0 45.0)
           (-30.0 30.0)
           (-30.0 30.0)
  end
  begin
     id 14 
     name lowerneck
     direction 0.0563074 0.996944 -0.0541571   
     length 2.34257   
     axis 0 0 0   XYZ
    dof rx ry rz
    limits (-20.0 45.0)
           (-30.0 30.0)
           (-30.0 30.0)
  end
  begin
     id 15 
     name upperneck
     direction -0.0544519 0.976166 -0.210085   
     length 2.32506   
     axis 0 0 0   XYZ
    dof rx ry rz
    limits (-20.0 45.0)
           (-30.0 30.0)
           (-30.0 30.0)
  end
  begin
     id 16
     name head
     direction -0.0226035 0.997615 -0.0652205  
     length 2.3648  
     axis 0 0 0   XYZ
    dof rx ry rz
    limits (-20.0 45.0)
           (-30.0 30.0)
           (-30.0 30.0)
  end
  begin
     id 17 
     name lclavicle
     direction 0.92109 0.381297 -0.0787716  
     length 4.0487  
     axis 0 0 0   XYZ
    dof ry rz
    limits (-20.0 10.0)
           (0.0 20.0)
  end
  begin
     id 18 
     name lhumerus
     direction 1 -4.48986e-011 3.56724e-027   
     length 4.94991   
     axis 180 -30 -90   XYZ
    dof rx ry rz
    limits (-60.0 90.0)
           (-90.0 90.0)
           (-90.0 90.0)
  end
  begin
     id 19
     name lradius
     direction 1 -4.48981e-011 8.62147e-027   
     length 2.7606   
     axis 180 -30 -90   XYZ
    dof rx
    limits (-10.0 170.0)
  end
  begin
     id 20
     name lwrist
     direction 1 -4.48989e-011 1.59799e-026   
     length 1.3803   
     axis -1.17785e-014 90 90   XYZ
    dof ry
    limits (-180.0 0.0)
 end
  begin
     id 21 
     name lhand
     direction 1 -4.48896e-011 3.19599e-026   
     length 0.843936   
     axis -2.03931e-014 90 90   XYZ
    dof rx rz
    limits (-90.0 90.0)
           (-45.0 45.0)
  end
  begin
     id 22 
     name lfingers
     direction 1 -4.48887e-011 6.39197e-026   
     length 0.680403   
     axis -4.07862e-014 90 90   XYZ
    dof rx
    limits (0.0 90.0)
  end
  begin
     id 23
     name lthumb
     direction 0.707107 -6.348e-011 0.707107   
     length 0.976926   
     axis -90 45 2.85299e-015   XYZ
    dof rx rz
    limits (-45.0 45.0)
           (-45.0 45.0)
  end
  begin
     id 24 
     name rclavicle
     direction -0.951104 0.307692 -0.026953   
     length 4.21801  
     axis 0 0 0   XYZ 
    dof ry rz
    limits (-10.0 20.0)
           (-20.0 0.0)
  end
  begin
     id 25 
     name rhumerus
     direction -1 -4.4896e-011 -1.8171e-018  
     length 4.32982   
     axis 180 30 90   XYZ
    dof rx ry rz
    limits (-90.0 60.0)
           (-90.0 90.0)
           (-90.0 90.0)
  end
  begin
     id 26 
     name rradius
     direction -1 -4.48959e-011 8.25165e-027   
     length 3.20057   
     axis 180 30 90   XYZ
    dof rx
    limits (-10.0 170.0)
  end
  begin
     id 27 
     name rwrist
     direction -1 -4.48997e-011 1.59799e-026   
     length 1.60029   
     axis -1.17785e-014 -90 -90   XYZ
    dof ry
    limits (-180.0 0.0)
  end
  begin
     id 28
     name rhand
     direction -1 -4.49023e-011 3.19599e-026   
     length 0.960433   
     axis -2.03931e-014 -90 -90   XYZ
    dof rx rz
    limits (-90.0 90.0)
           (-45.0 45.0)
  end
  begin
     id 29
     name rfingers
     direction -1 -4.48802e-011 6.39197e-026   
     length 0.774326   
     axis -4.07862e-014 -90 -90   XYZ
    dof rx
    limits (0.0 90.0)
  end
  begin
     id 30
     name rthumb
     direction -0.707107 -6.34876e-011 0.707107   
     length 1.11178   
     axis -90 -45 -2.85299e-015   XYZ
    dof rx rz
    limits (-45.0 45.0)
           (-45.0 45.0)
  end
:hierarchy
  begin
    root lhipjoint rhipjoint lowerback
    lhipjoint lfemur
    lfemur ltibia
    ltibia lfoot
    lfoot ltoes
    rhipjoint rfemur
    rfemur rtibia
    rtibia rfoot
    rfoot rtoes
    lowerback upperback
    upperback thorax
    thorax lowerneck lclavicle rclavicle
    lowerneck upperneck
    upperneck head
    lclavicle lhumerus
    lhumerus lradius
    lradius lwrist
    lwrist lhand lthumb
    lhand lfingers
    rclavicle rhumerus
    rhumerus rradius
    rradius rwrist
    rwrist rhand rthumb
    rhand rfingers
end

#!OML:ASF C:\KaitlinTest1\Natural Motions\Nikki\Session 2\Nikki.ASF
:FULLY-SPECIFIED
:DEGREES
622
root 0.978948 16.5469 4.95857 -141.735 84.4759 -153.019
lowerback -13.0426 -3.15462 0.925709
upperback -3.81358 -4.14413 0.344053
thorax 3.24785 -1.98253 -0.800343
lowerneck -3.40711 -11.3343 -8.79269
upperneck 8.07741 42.971 6.40876
head 151.029 70.0089 -52.6825
rclavicle -9.13167e-015 -4.77083e-015
rhumerus -38.5069 -19.2305 -82.0355
rradius 18.2325
rwrist 19.0949
rhand -37.4205 2.40435
rfingers 7.12502
rthumb -10.4803 -27.3144
lclavicle -9.13167e-015 -4.77083e-015
lhumerus -39.2683 18.642 80.8273
lradius 21.3506
lwrist -36.0631
lhand -34.5776 4.80019
lfingers 7.12502
lthumb -7.73705 34.6386
rfemur -17.7385 -16.3807 22.6269
rtibia 25.913
rfoot -16.8368 11.8941
rtoes -1.15295e-013
lfemur -21.3289 19.3715 -20.1839
ltibia 28.1354
lfoot -10.2289 -23.51
ltoes -1.27222e-014
623
root 0.981254 16.5464 4.95839 -141.669 84.4541 -152.979
lowerback -13.0581 -3.15429 0.937895
upperback -3.83068 -4.14442 0.350107
thorax 3.23789 -1.98234 -0.801154
lowerneck -3.45877 -11.3703 -8.70252
upperneck 8.08549 42.9786 6.41785
head 150.501 70.1623 -53.1996
rclavicle 4.40432e-014 1.63003e-014
rhumerus -38.5442 -19.164 -82.0542
rradius 18.2616
rwrist 19.0731
rhand -37.3897 2.33156
rfingers 7.12502
rthumb -10.4506 -27.3887
lclavicle 4.40432e-014 1.63003e-014
lhumerus -39.2901 18.6707 80.7931
lradius 21.3565
lwrist -36.1484
lhand -34.5478 4.83263
lfingers 7.12502
lthumb -7.70831 34.6721
rfemur -17.757 -16.3815 22.6488
rtibia 25.9177
rfoot -16.7851 11.85
rtoes 1.51076e-014
lfemur -21.3705 19.4373 -20.1974
ltibia 28.1328
lfoot -10.2317 -23.5799
ltoes 4.6118e-014
624
root 0.98201 16.5459 4.95731 -141.782 84.4502 -153.114
lowerback -13.0655 -3.15317 0.940197
upperback -3.83507 -4.14269 0.344036
thorax 3.23675 -1.98138 -0.808739
lowerneck -3.55303 -11.416 -8.60319
upperneck 8.0848 42.9962 6.41534
head 149.893 70.2983 -53.7853
rclavicle 1.00635e-015 9.54166e-015
rhumerus -38.5305 -19.2022 -82.0232
rradius 18.1838
rwrist 19.1702
rhand -37.3893 2.39198
rfingers 7.12502
rthumb -10.4502 -27.3283
lclavicle 1.00635e-015 9.54166e-015
lhumerus -39.2677 18.6775 80.7662
lradius 21.3362
lwrist -36.2862
lhand -34.514 4.85416
lfingers 7.12502
lthumb -7.67566 34.6949
rfemur -17.7753 -16.3783 22.6426
rtibia 25.92
rfoot -16.8496 11.8624
rtoes -3.4191e-014
lfemur -21.3922 19.4444 -20.2212
ltibia 28.1358
lfoot -10.2316 -23.5997
ltoes -6.99722e-014
625
root 0.983414 16.5458 4.95623 -141.904 84.4619 -153.224
lowerback -13.0452 -3.149 0.914904
upperback -3.83239 -4.13411 0.343406
thorax 3.23048 -1.9774 -0.792909
lowerneck -3.62505 -11.4603 -8.51972
upperneck 8.08443 43 6.40692
head 149.294 70.4282 -54.3526
rclavicle -3.24019e-014 -8.74653e-015
rhumerus -38.5228 -19.2675 -81.9832
rradius 18.1374
rwrist 19.2719
rhand -37.3869 2.30113
rfingers 7.12502
rthumb -10.4479 -27.4193
lclavicle -3.24019e-014 -8.74653e-015
lhumerus -39.3053 18.4205 80.9168
lradius 21.5466
lwrist -35.9989
lhand -34.4233 4.9492
lfingers 7.12502
lthumb -7.58811 34.7931
rfemur -17.7441 -16.3591 22.6143
rtibia 25.9038
rfoot -16.8533 11.8485
rtoes -3.18055e-014
lfemur -21.3781 19.4221 -20.2308
ltibia 28.1582
lfoot -10.2762 -23.5667
ltoes -7.95139e-015
626
root 0.986236 16.5468 4.95559 -141.584 84.4048 -152.9
lowerback -13.0566 -3.14848 0.971532
upperback -3.82429 -4.14152 0.353475
thorax 3.24162 -1.98088 -0.816106
lowerneck -3.70415 -11.4932 -8.44235
upperneck 8.08241 43.0157 6.4071
head 148.812 70.5431 -54.8267
rclavicle 3.24019e-014 1.07344e-014
rhumerus -38.5432 -19.3072 -81.9691
rradius 18.1544
rwrist 19.31
rhand -37.3708 2.32661
rfingers 7.12502
rthumb -10.4324 -27.3946
lclavicle 3.24019e-014 1.07344e-014
lhumerus -39.2915 18.3875 80.9122
lradius 21.5344
lwrist -36.0279
lhand -34.403 4.9077
lfingers 7.12502
lthumb -7.56852 34.7523
rfemur -17.7259 -16.3628 22.6701
rtibia 25.896
rfoot -16.8517 11.8306
rtoes 7.71285e-014
lfemur -21.3753 19.4305 -20.1647
ltibia 28.1723
lfoot -10.2837 -23.5981
ltoes 4.92986e-014
627
root 0.987328 16.5467 4.95515 -141.78 84.4033 -153.084
lowerback -13.023 -3.15014 0.952615
upperback -3.81911 -4.14131 0.345472
thorax 3.22959 -1.98124 -0.812076
lowerneck -3.78366 -11.5391 -8.34989
upperneck 8.06762 42.9854 6.39084
head 148.173 70.6892 -55.427
rclavicle 2.29969e-014 -1.27222e-014
rhumerus -38.5297 -19.3545 -81.9531
rradius 18.1129
rwrist 19.3286
rhand -37.354 2.34897
rfingers 7.12502
rthumb -10.4161 -27.373
lclavicle 2.29969e-014 -1.27222e-014
lhumerus -39.2617 18.5659 80.8034
lradius 21.4117
lwrist -36.2147
lhand -34.5067 4.84676
lfingers 7.12502
lthumb -7.66864 34.6877
rfemur -17.6998 -16.4154 22.659
rtibia 25.8849
rfoot -16.8878 11.8462
rtoes -5.40694e-014
lfemur -21.3685 19.4571 -20.178
ltibia 28.1897
lfoot -10.2767 -23.6448
ltoes -4.92986e-014
628
root 0.988864 16.5456 4.95489 -141.764 84.3936 -153.07
lowerback -13.0063 -3.14931 0.958883
upperback -3.8265 -4.14063 0.346211
thorax 3.21243 -1.98103 -0.81345
lowerneck -3.84659 -11.5558 -8.29515
upperneck 8.07416 43.0259 6.40213
head 147.852 70.7712 -55.7636
rclavicle -1.57785e-014 2.78299e-015
rhumerus -38.5585 -19.3619 -81.9404
rradius 18.126
rwrist 19.3691
rhand -37.3314 2.30062
rfingers 7.12502
rthumb -10.3943 -27.4225
lclavicle -1.57785e-014 2.78299e-015
lhumerus -39.2857 18.2823 80.9594
lradius 21.5732
lwrist -35.9122
lhand -34.4097 4.98334
lfingers 7.12502
lthumb -7.57499 34.8277
rfemur -17.6845 -16.4037 22.6611
rtibia 25.8703
rfoot -16.8669 11.8193
rtoes -5.1684e-014
lfemur -21.3755 19.4754 -20.178
ltibia 28.2101
lfoot -10.2852 -23.6717
ltoes 3.18055e-014
